<svg width="1920" height="1070" viewBox="0 0 1920 1070" fill="none" xmlns="http://www.w3.org/2000/svg">
<rect width="1920" height="1070" fill="white"/>
<rect width="1920" height="768" fill="#FBF2EA"/>
<path d="M753.139 156.218C746.689 175.525 736.501 193.372 723.154 208.74C709.808 224.109 693.565 236.698 675.353 245.79C657.142 254.881 637.318 260.296 617.013 261.726C596.708 263.156 576.321 260.573 557.015 254.124C537.708 247.675 519.862 237.486 504.493 224.14C489.124 210.793 476.535 194.551 467.443 176.339C458.352 158.127 452.937 138.303 451.507 117.998C450.077 97.6937 452.66 77.3062 459.109 58L606.124 107.109L753.139 156.218Z" fill="#F7C929"/>
</svg>
